<?xml version="1.0" standalone="no"?>
<!DOCTYPE svg PUBLIC "-//W3C//DTD SVG 20010904//EN"
 "http://www.w3.org/TR/2001/REC-SVG-20010904/DTD/svg10.dtd">
<svg version="1.0" xmlns="http://www.w3.org/2000/svg"
 width="648.000000pt" height="648.000000pt" viewBox="0 0 648.000000 648.000000"
 preserveAspectRatio="xMidYMid meet">
<metadata>
Created by potrace 1.14, written by Peter Selinger 2001-2017
</metadata>
<g transform="translate(0.000000,648.000000) scale(0.100000,-0.100000)"
fill="#000000" stroke="none">
<path d="M6302 5963 c-19 -87 -35 -168 -38 -179 -2 -12 -15 -59 -29 -105 -14
-46 -27 -91 -29 -101 -3 -9 -12 -30 -20 -47 -9 -17 -17 -34 -17 -38 -5 -34
-96 -214 -154 -304 -94 -145 -248 -318 -370 -416 -22 -18 -54 -44 -71 -58 -18
-14 -36 -25 -42 -25 -6 0 -12 -4 -14 -8 -5 -13 -220 -140 -248 -147 -3 -1 -16
-6 -30 -12 -55 -24 -85 -36 -95 -39 -5 -1 -35 -11 -65 -22 -66 -25 -121 -39
-175 -46 -96 -12 -153 -18 -195 -21 -327 -20 -383 -22 -685 -31 -292 -8 -1279
-8 -1577 0 -287 8 -573 21 -693 31 -22 2 -69 6 -105 9 -36 3 -76 8 -90 11 -14
3 -40 8 -58 11 -125 21 -487 202 -622 311 -87 70 -114 93 -170 148 -161 156
-259 291 -353 485 -48 99 -110 266 -121 327 -35 180 -75 343 -85 343 -17 -1
-30 -22 -52 -85 -13 -38 -24 -72 -24 -75 -1 -7 -18 -82 -22 -100 -2 -8 -5 -26
-8 -40 -2 -14 -7 -38 -10 -55 -4 -16 -8 -43 -10 -60 -1 -16 -7 -57 -11 -90
-16 -112 -7 -495 11 -526 2 -3 7 -28 11 -55 3 -27 10 -59 15 -72 5 -12 8 -26
7 -30 -2 -10 18 -81 50 -177 14 -44 27 -82 27 -85 1 -3 9 -22 18 -44 9 -21 17
-44 17 -50 0 -7 5 -17 11 -23 6 -6 12 -17 13 -24 14 -77 267 -496 355 -589 9
-9 36 -41 61 -70 56 -67 219 -230 289 -290 100 -84 211 -159 309 -205 53 -26
105 -51 114 -56 10 -5 26 -9 36 -9 10 0 22 -3 26 -7 3 -4 12 -8 19 -9 40 -8
320 -84 324 -88 3 -3 12 -31 20 -63 16 -66 13 -56 48 -188 15 -55 31 -116 35
-135 4 -19 13 -50 18 -67 6 -18 8 -33 5 -33 -3 0 -1 -6 5 -12 5 -7 13 -26 16
-43 5 -25 17 -73 41 -168 3 -9 7 -25 9 -35 5 -17 47 -178 92 -352 14 -52 28
-106 30 -119 3 -14 7 -28 10 -33 3 -5 7 -18 10 -31 5 -28 6 -31 55 -222 23
-88 42 -167 43 -175 2 -8 8 -33 14 -55 6 -22 13 -51 16 -65 16 -74 24 -107 29
-120 3 -8 9 -33 12 -54 3 -22 7 -42 10 -44 7 -7 -21 -54 -50 -85 -14 -15 -43
-36 -64 -47 -43 -21 -111 -82 -111 -98 0 -24 183 -257 340 -432 17 -19 41 -47
53 -62 l22 -28 826 0 825 0 50 72 c49 72 136 194 151 213 34 41 127 193 136
220 13 44 -7 76 -70 113 -71 42 -74 46 -68 110 4 52 11 103 21 157 2 10 6 36
9 56 3 20 10 50 15 67 5 18 7 32 4 32 -3 0 -1 8 5 18 5 9 12 39 15 66 4 27 9
53 12 58 3 5 7 21 10 36 3 15 16 74 30 132 35 145 34 142 40 170 3 14 14 61
25 105 12 44 22 87 24 95 8 38 77 307 82 320 3 8 6 18 5 22 -1 4 3 19 8 33 5
14 12 36 14 48 2 12 18 76 36 142 27 103 44 168 54 210 29 123 67 232 88 255
29 32 87 60 138 65 168 19 409 125 585 258 113 85 262 227 350 332 28 33 53
62 58 63 4 2 7 10 7 18 0 8 4 14 8 14 13 0 127 166 210 305 51 86 154 295 145
295 -3 0 2 9 12 20 10 11 15 23 12 27 -4 3 -3 11 2 17 10 12 97 267 105 306 3
14 12 57 20 95 35 162 40 220 41 415 0 152 -9 291 -19 308 -2 4 -7 24 -10 44
-5 34 -18 93 -31 141 -3 9 -7 25 -10 35 -12 47 -65 237 -68 245 -1 4 -17 -63
-35 -150z"/>
</g>
</svg>
