<svg width="81" height="72" viewBox="0 0 81 72" fill="none" xmlns="http://www.w3.org/2000/svg">
<path fill-rule="evenodd" clip-rule="evenodd" d="M78.5069 20.8647C76.2774 18.4596 72.4839 15.6376 67.9925 15.7324C67.6931 15.7387 67.4061 15.6315 67.1993 15.4149C55.834 3.50769 30.8081 -11.993 8.51972 14.7534C7.4379 16.0516 6.7423 17.0338 6.12519 17.9051C4.84105 19.7183 3.89682 21.0516 0.519721 23.7537L8.02343 23.7536C5.52343 27.4203 -0.380643 36.5531 0.0193573 43.7531C1.85281 41.4197 6.11972 36.8531 8.51972 37.2531C6.01972 46.9198 5.52343 64.2529 20.0197 71.753C19.6864 67.5864 19.2197 58.2529 20.0197 56.2529C22.8531 60.0863 30.5234 67.7529 39.5197 71.753C38.3532 60.0864 40.42 35.8531 58.0197 32.2531H75.5596C76.1665 32.2531 76.7406 32.5287 77.1202 33.0022L78.5234 34.7529L78.9601 35.1908C79.3505 35.5823 80.0194 35.3058 80.0194 34.7529V25.1753C80.0194 23.5959 79.5807 22.0229 78.5069 20.8647ZM41.5103 12.5923C43.9502 13.4426 47.7014 14.7499 54.5314 15.6308C55.0953 15.7036 55.5234 16.1816 55.5234 16.7502C55.5234 17.4019 55.3319 18.0517 54.8681 18.5095C53.179 20.1767 49.8394 21.722 46.0234 18.2529L40.5234 12.2529C40.8283 12.3546 41.1554 12.4686 41.5103 12.5923Z" fill="white"/>
</svg>
