<?xml version="1.0" encoding="UTF-8" standalone="no"?>

<svg
   xmlns:dc="http://purl.org/dc/elements/1.1/"
   xmlns:cc="http://creativecommons.org/ns#"
   xmlns:rdf="http://www.w3.org/1999/02/22-rdf-syntax-ns#"
   xmlns:svg="http://www.w3.org/2000/svg"
   xmlns="http://www.w3.org/2000/svg"
   xmlns:sodipodi="http://sodipodi.sourceforge.net/DTD/sodipodi-0.dtd"
   xmlns:inkscape="http://www.inkscape.org/namespaces/inkscape"
   width="81"
   height="72"
   viewBox="0 0 21.43125 19.050001"
   version="1.1"
   id="svg8"
   inkscape:version="0.92.3 (2405546, 2018-03-11)"
   sodipodi:docname="taurus.svg"
   inkscape:export-filename="/taurus.png"
   inkscape:export-xdpi="96"
   inkscape:export-ydpi="96">
  <defs
     id="defs2" />
  <sodipodi:namedview
     id="base"
     pagecolor="#ffffff"
     bordercolor="#666666"
     borderopacity="1.0"
     inkscape:pageopacity="0.0"
     inkscape:pageshadow="2"
     inkscape:zoom="8.5"
     inkscape:cx="29.767842"
     inkscape:cy="35.317791"
     inkscape:document-units="mm"
     inkscape:current-layer="layer1"
     showgrid="false"
     units="px"
     inkscape:window-width="1865"
     inkscape:window-height="1025"
     inkscape:window-x="55"
     inkscape:window-y="1107"
     inkscape:window-maximized="1" />
  <metadata
     id="metadata5">
    <rdf:RDF>
      <cc:Work
         rdf:about="">
        <dc:format>image/svg+xml</dc:format>
        <dc:type
           rdf:resource="http://purl.org/dc/dcmitype/StillImage" />
        <dc:title></dc:title>
      </cc:Work>
    </rdf:RDF>
  </metadata>
  <g
     inkscape:label="Layer 1"
     inkscape:groupmode="layer"
     id="layer1"
     transform="translate(0,-277.94998)">
    <path
       sodipodi:nodetypes="csssscsssscscsccssccccccc"
       inkscape:connector-curvature="0"
       id="path49"
       d="m 7.3751153,296.2049 c -0.3792249,-0.43767 -0.6895044,-0.85675 -0.6895044,-0.93132 0,-0.0746 0.1678469,-0.22413 0.3729892,-0.33238 0.2051423,-0.10825 0.3671419,-0.30147 0.3599971,-0.42939 -0.00719,-0.12791 -0.3931875,-1.68245 -0.8578702,-3.45453 l -0.8448831,-3.22195 -0.7801145,-0.19441 c -1.0333697,-0.25752 -1.7395196,-0.71553 -2.7287693,-1.7699 -1.49676351,-1.59528 -2.34298945,-3.80411 -2.18902113,-5.71379 0.0767723,-0.95221 0.36087611,-2.07498 0.49226868,-1.94543 0.0309629,0.0306 0.12518356,0.41368 0.2093816,0.85143 0.39947915,2.07692 1.91499385,3.72021 4.11151805,4.45815 1.0491193,0.35246 10.5038967,0.35626 11.7045487,0.004 2.184024,-0.63948 3.751621,-2.3621 4.218959,-4.63615 l 0.193025,-0.93925 0.254149,0.89227 c 0.455175,1.59808 0.230833,3.35605 -0.652276,5.11131 -1.010216,2.00789 -2.672646,3.48202 -4.202873,3.72684 -0.489009,0.0782 -0.576614,0.156 -0.70112,0.62236 -1.096795,4.1081 -1.613773,6.42601 -1.454639,6.52192 0.610437,0.36792 0.610983,0.35289 -0.04652,1.27712 l -0.638986,0.89818 H 10.785003 8.0646388 Z"
       style="fill:#ffffff;fill-opacity:1;stroke-width:1" />
  </g>
</svg>
